# xmcd CD database file
#
# Track frame offsets:
#	150
#	15693
#	32967
#	49867
#	69843
#	87756
#	105769
#	124718
#	138464
#	153916
#	170928
#	191999
#	215356
#	247669
#
# Disc length: 4440 seconds
#
# Revision: 1
# Processed by: cddbd v1.5.2PL0 Copyright (c) Steve Scherf et al.
# Submitted via: CDex 1.51
#
DISCID=b711560e
DTITLE=Stephan Eicher - Taxi Europa
DYEAR=2003
DGENRE=Folk/Rock
TTITLE0=On Nous A Donné
TTITLE1=Mon Ami (Guarda E Passa)
TTITLE2=Cendrillon Après Minuit
TTITLE3=Tant Et Tant
TTITLE4=Taxi Europa (With Max Gazzé Et Herbert Gronenmeyer)
TTITLE5=Si On S'y Mettait
TTITLE6=Kreis 5
TTITLE7=Swim To America
TTITLE8=La Voisine
TTITLE9=Avec Toi
TTITLE10=Rien N'est Si Bon
TTITLE11=E
TTITLE12=Ps
TTITLE13=Data Track
EXTD=YEAR: 2003
EXTT0=
EXTT1=
EXTT2=
EXTT3=
EXTT4=
EXTT5=
EXTT6=
EXTT7=
EXTT8=
EXTT9=
EXTT10=
EXTT11=
EXTT12=
EXTT13=
PLAYORDER=
